<svg width="100" height="40" viewBox="0 0 100 40" fill="none" xmlns="http://www.w3.org/2000/svg">
<rect x="1" y="1" width="98" height="38" rx="9" stroke="#1E1E1E" stroke-width="2"/>
<path d="M16.168 26V14.832H20.792C21.7733 14.832 22.5147 15.136 23.016 15.744C23.528 16.352 23.784 17.1893 23.784 18.256C23.784 19.3227 23.528 20.16 23.016 20.768C22.5147 21.376 21.7733 21.68 20.792 21.68H18.168V26H16.168ZM18.168 19.936H20.584C20.9253 19.936 21.192 19.8453 21.384 19.664C21.5867 19.472 21.688 19.168 21.688 18.752V17.76C21.688 17.344 21.5867 17.0453 21.384 16.864C21.192 16.672 20.9253 16.576 20.584 16.576H18.168V19.936ZM25.4961 26V14.832H27.4961V24.256H31.4161V26H25.4961ZM39.4393 26L38.6553 23.088H35.0553L34.2713 26H32.3513L35.6153 14.832H38.1433L41.4073 26H39.4393ZM37.3113 18.416L36.9593 16.64H36.7352L36.3833 18.416L35.5353 21.472H38.1753L37.3113 18.416ZM44.2079 26V21.728L40.7839 14.832H42.9759L45.1359 19.632H45.3599L47.4719 14.832H49.6159L46.2079 21.728V26H44.2079Z" fill="#1E1E1E"/>
<path d="M73 11L87 20L73 29V11Z" stroke="#1E1E1E" stroke-width="2" stroke-linecap="round" stroke-linejoin="round"/>
</svg>
