<svg width="60" height="60" viewBox="0 0 60 60" fill="none" xmlns="http://www.w3.org/2000/svg">
<g clip-path="url(#clip0_34_11)">
<circle cx="30" cy="30" r="29" fill="#FAFAFA" stroke="#1E1E1E" stroke-width="2"/>
<path d="M46.5416 40.7083C46.5416 41.4819 46.2344 42.2237 45.6874 42.7707C45.1404 43.3177 44.3985 43.625 43.625 43.625H17.375C16.6014 43.625 15.8596 43.3177 15.3126 42.7707C14.7656 42.2237 14.4583 41.4819 14.4583 40.7083V24.6667C14.4583 23.8931 14.7656 23.1513 15.3126 22.6043C15.8596 22.0573 16.6014 21.75 17.375 21.75H23.2083L26.125 17.375H34.875L37.7916 21.75H43.625C44.3985 21.75 45.1404 22.0573 45.6874 22.6043C46.2344 23.1513 46.5416 23.8931 46.5416 24.6667V40.7083Z" stroke="#1E1E1E" stroke-width="2" stroke-linecap="round" stroke-linejoin="round"/>
<path d="M30.5 37.7917C33.7217 37.7917 36.3334 35.18 36.3334 31.9583C36.3334 28.7367 33.7217 26.125 30.5 26.125C27.2784 26.125 24.6667 28.7367 24.6667 31.9583C24.6667 35.18 27.2784 37.7917 30.5 37.7917Z" stroke="#1E1E1E" stroke-width="2" stroke-linecap="round" stroke-linejoin="round"/>
</g>
<defs>
<clipPath id="clip0_34_11">
<rect width="60" height="60" fill="white"/>
</clipPath>
</defs>
</svg>
