<svg width="120" height="40" viewBox="0 0 120 40" fill="none" xmlns="http://www.w3.org/2000/svg">
<rect x="1" y="1" width="118" height="38" rx="9" stroke="#1E1E1E" stroke-width="2"/>
<path d="M17.104 26.192C16.4427 26.192 15.8453 26.0907 15.312 25.888C14.7787 25.6747 14.32 25.3387 13.936 24.88C13.5627 24.4213 13.2693 23.8293 13.056 23.104C12.8533 22.3787 12.752 21.504 12.752 20.48C12.752 19.4453 12.8533 18.56 13.056 17.824C13.2693 17.088 13.5627 16.4853 13.936 16.016C14.32 15.5467 14.7787 15.2 15.312 14.976C15.8453 14.752 16.4427 14.64 17.104 14.64C17.5947 14.64 18.032 14.6933 18.416 14.8C18.8 14.9067 19.1413 15.0667 19.44 15.28C19.7387 15.4827 20 15.744 20.224 16.064C20.448 16.384 20.6507 16.7573 20.832 17.184L19.136 18.08C18.9653 17.472 18.7253 17.0347 18.416 16.768C18.1067 16.5013 17.6693 16.368 17.104 16.368C16.4 16.368 15.8507 16.5973 15.456 17.056C15.072 17.5147 14.88 18.1707 14.88 19.024V21.808C14.88 22.6613 15.072 23.3173 15.456 23.776C15.8507 24.2347 16.4 24.464 17.104 24.464C17.6693 24.464 18.1173 24.32 18.448 24.032C18.7893 23.744 19.056 23.28 19.248 22.64L20.88 23.6C20.6987 24.016 20.4907 24.384 20.256 24.704C20.0213 25.024 19.7493 25.296 19.44 25.52C19.1413 25.7333 18.8 25.8987 18.416 26.016C18.032 26.1333 17.5947 26.192 17.104 26.192ZM28.5955 26L27.8115 23.088H24.2115L23.4275 26H21.5075L24.7715 14.832H27.2995L30.5635 26H28.5955ZM26.4675 18.416L26.1155 16.64H25.8915L25.5395 18.416L24.6915 21.472H27.3315L26.4675 18.416ZM32.0586 26V14.832H36.6826C37.664 14.832 38.4053 15.136 38.9066 15.744C39.4186 16.352 39.6746 17.1893 39.6746 18.256C39.6746 19.3227 39.4186 20.16 38.9066 20.768C38.4053 21.376 37.664 21.68 36.6826 21.68H34.0586V26H32.0586ZM34.0586 19.936H36.4746C36.816 19.936 37.0826 19.8453 37.2746 19.664C37.4773 19.472 37.5786 19.168 37.5786 18.752V17.76C37.5786 17.344 37.4773 17.0453 37.2746 16.864C37.0826 16.672 36.816 16.576 36.4746 16.576H34.0586V19.936ZM45.4028 16.576V26H43.4028V16.576H40.6028V14.832H48.2188V16.576H45.4028ZM51.6974 14.832V22.08C51.6974 22.9013 51.8307 23.504 52.0974 23.888C52.3747 24.272 52.876 24.464 53.6014 24.464C54.3267 24.464 54.8227 24.272 55.0894 23.888C55.3667 23.504 55.5054 22.9013 55.5054 22.08V14.832H57.5054V21.792C57.5054 22.56 57.436 23.2213 57.2974 23.776C57.1694 24.3307 56.9507 24.7893 56.6414 25.152C56.332 25.504 55.9267 25.7653 55.4254 25.936C54.9347 26.1067 54.3267 26.192 53.6014 26.192C52.876 26.192 52.2627 26.1067 51.7614 25.936C51.2707 25.7653 50.8707 25.504 50.5614 25.152C50.252 24.7893 50.028 24.3307 49.8894 23.776C49.7614 23.2213 49.6974 22.56 49.6974 21.792V14.832H51.6974ZM61.7618 26H59.7618V14.832H64.3858C65.3671 14.832 66.1084 15.1307 66.6098 15.728C67.1218 16.3253 67.3778 17.1573 67.3778 18.224C67.3778 19.0667 67.2178 19.7653 66.8978 20.32C66.5778 20.864 66.1084 21.2373 65.4898 21.44L67.5218 26H65.3618L63.5218 21.6H61.7618V26ZM64.1778 19.936C64.5191 19.936 64.7858 19.8453 64.9778 19.664C65.1804 19.4827 65.2818 19.1787 65.2818 18.752V17.76C65.2818 17.3333 65.1804 17.0293 64.9778 16.848C64.7858 16.6667 64.5191 16.576 64.1778 16.576H61.7618V19.936H64.1778ZM69.3711 26V14.832H76.0751V16.576H71.3711V19.488H75.4831V21.184H71.3711V24.256H76.0751V26H69.3711Z" fill="#1E1E1E"/>
<path d="M111 27C111 27.5304 110.789 28.0391 110.414 28.4142C110.039 28.7893 109.53 29 109 29H91C90.4696 29 89.9609 28.7893 89.5858 28.4142C89.2107 28.0391 89 27.5304 89 27V16C89 15.4696 89.2107 14.9609 89.5858 14.5858C89.9609 14.2107 90.4696 14 91 14H95L97 11H103L105 14H109C109.53 14 110.039 14.2107 110.414 14.5858C110.789 14.9609 111 15.4696 111 16V27Z" stroke="#1E1E1E" stroke-width="2" stroke-linecap="round" stroke-linejoin="round"/>
<path d="M100 25C102.209 25 104 23.2091 104 21C104 18.7909 102.209 17 100 17C97.7909 17 96 18.7909 96 21C96 23.2091 97.7909 25 100 25Z" stroke="#1E1E1E" stroke-width="2" stroke-linecap="round" stroke-linejoin="round"/>
</svg>
