<svg width="140" height="40" viewBox="0 0 140 40" fill="none" xmlns="http://www.w3.org/2000/svg">
<rect x="1" y="1" width="138" height="38" rx="9" fill="white"/>
<rect x="1" y="1" width="138" height="38" rx="9" stroke="#1E1E1E" stroke-width="2"/>
<path d="M16.168 14.832H19.976C20.648 14.832 21.2453 14.9387 21.768 15.152C22.3013 15.3547 22.7493 15.6853 23.112 16.144C23.4853 16.592 23.768 17.168 23.96 17.872C24.152 18.576 24.248 19.424 24.248 20.416C24.248 21.408 24.152 22.256 23.96 22.96C23.768 23.664 23.4853 24.2453 23.112 24.704C22.7493 25.152 22.3013 25.4827 21.768 25.696C21.2453 25.8987 20.648 26 19.976 26H16.168V14.832ZM19.976 24.256C20.6587 24.256 21.1867 24.048 21.56 23.632C21.9333 23.2053 22.12 22.5707 22.12 21.728V19.104C22.12 18.2613 21.9333 17.632 21.56 17.216C21.1867 16.7893 20.6587 16.576 19.976 16.576H18.168V24.256H19.976ZM30.136 26.192C29.464 26.192 28.856 26.0853 28.312 25.872C27.7787 25.648 27.32 25.3067 26.936 24.848C26.5627 24.3787 26.2693 23.7813 26.056 23.056C25.8533 22.32 25.752 21.44 25.752 20.416C25.752 19.392 25.8533 18.5173 26.056 17.792C26.2693 17.056 26.5627 16.4587 26.936 16C27.32 15.5307 27.7787 15.1893 28.312 14.976C28.856 14.752 29.464 14.64 30.136 14.64C30.808 14.64 31.4107 14.752 31.944 14.976C32.488 15.1893 32.9467 15.5307 33.32 16C33.704 16.4587 33.9973 17.056 34.2 17.792C34.4133 18.5173 34.52 19.392 34.52 20.416C34.52 21.44 34.4133 22.32 34.2 23.056C33.9973 23.7813 33.704 24.3787 33.32 24.848C32.9467 25.3067 32.488 25.648 31.944 25.872C31.4107 26.0853 30.808 26.192 30.136 26.192ZM30.136 24.432C30.8613 24.432 31.4213 24.208 31.816 23.76C32.2107 23.3013 32.408 22.6507 32.408 21.808V19.024C32.408 18.1813 32.2107 17.536 31.816 17.088C31.4213 16.6293 30.8613 16.4 30.136 16.4C29.4107 16.4 28.8507 16.6293 28.456 17.088C28.0613 17.536 27.864 18.1813 27.864 19.024V21.808C27.864 22.6507 28.0613 23.3013 28.456 23.76C28.8507 24.208 29.4107 24.432 30.136 24.432ZM37.6411 26L35.3531 14.832H37.3371L38.5211 21.312L38.8411 23.856H39.0651L39.3851 21.36L40.7451 14.832H43.0171L44.3771 21.36L44.6971 23.856H44.9371L45.2571 21.312L46.4251 14.832H48.3451L45.9451 26H43.6411L42.2651 19.344L41.9451 16.928H41.7211L41.4011 19.344L39.9931 26H37.6411ZM52.6704 19.648L51.8864 17.712H51.6624L51.7904 19.712V26H49.9024V14.832H52.1264L55.2144 21.184L55.9984 23.12H56.2224L56.0944 21.12V14.832H57.9824V26H55.7584L52.6704 19.648ZM60.3243 26V14.832H62.3243V24.256H66.2443V26H60.3243ZM71.261 26.192C70.589 26.192 69.981 26.0853 69.437 25.872C68.9037 25.648 68.445 25.3067 68.061 24.848C67.6877 24.3787 67.3943 23.7813 67.181 23.056C66.9783 22.32 66.877 21.44 66.877 20.416C66.877 19.392 66.9783 18.5173 67.181 17.792C67.3943 17.056 67.6877 16.4587 68.061 16C68.445 15.5307 68.9037 15.1893 69.437 14.976C69.981 14.752 70.589 14.64 71.261 14.64C71.933 14.64 72.5357 14.752 73.069 14.976C73.613 15.1893 74.0717 15.5307 74.445 16C74.829 16.4587 75.1223 17.056 75.325 17.792C75.5383 18.5173 75.645 19.392 75.645 20.416C75.645 21.44 75.5383 22.32 75.325 23.056C75.1223 23.7813 74.829 24.3787 74.445 24.848C74.0717 25.3067 73.613 25.648 73.069 25.872C72.5357 26.0853 71.933 26.192 71.261 26.192ZM71.261 24.432C71.9863 24.432 72.5463 24.208 72.941 23.76C73.3357 23.3013 73.533 22.6507 73.533 21.808V19.024C73.533 18.1813 73.3357 17.536 72.941 17.088C72.5463 16.6293 71.9863 16.4 71.261 16.4C70.5357 16.4 69.9757 16.6293 69.581 17.088C69.1863 17.536 68.989 18.1813 68.989 19.024V21.808C68.989 22.6507 69.1863 23.3013 69.581 23.76C69.9757 24.208 70.5357 24.432 71.261 24.432ZM83.4861 26L82.7021 23.088H79.1021L78.3181 26H76.3981L79.6621 14.832H82.1901L85.4541 26H83.4861ZM81.3581 18.416L81.0061 16.64H80.7821L80.4301 18.416L79.5821 21.472H82.2221L81.3581 18.416ZM86.9493 14.832H90.7573C91.4293 14.832 92.0266 14.9387 92.5493 15.152C93.0826 15.3547 93.5306 15.6853 93.8933 16.144C94.2666 16.592 94.5493 17.168 94.7413 17.872C94.9333 18.576 95.0293 19.424 95.0293 20.416C95.0293 21.408 94.9333 22.256 94.7413 22.96C94.5493 23.664 94.2666 24.2453 93.8933 24.704C93.5306 25.152 93.0826 25.4827 92.5493 25.696C92.0266 25.8987 91.4293 26 90.7573 26H86.9493V14.832ZM90.7573 24.256C91.4399 24.256 91.9679 24.048 92.3413 23.632C92.7146 23.2053 92.9013 22.5707 92.9013 21.728V19.104C92.9013 18.2613 92.7146 17.632 92.3413 17.216C91.9679 16.7893 91.4399 16.576 90.7573 16.576H88.9493V24.256H90.7573Z" fill="#1E1E1E"/>
<path d="M127 22V26C127 26.5304 126.789 27.0391 126.414 27.4142C126.039 27.7893 125.53 28 125 28H111C110.47 28 109.961 27.7893 109.586 27.4142C109.211 27.0391 109 26.5304 109 26V22" stroke="black" stroke-width="2" stroke-linecap="round" stroke-linejoin="round"/>
<path d="M113 17L118 22L123 17" stroke="black" stroke-width="2" stroke-linecap="round" stroke-linejoin="round"/>
<path d="M118 22V10" stroke="black" stroke-width="2" stroke-linecap="round" stroke-linejoin="round"/>
</svg>
