<svg width="120" height="40" viewBox="0 0 120 40" fill="none" xmlns="http://www.w3.org/2000/svg">
<rect x="1" y="1" width="118" height="38" rx="9" fill="white"/>
<rect x="1" y="1" width="118" height="38" rx="9" stroke="#1E1E1E" stroke-width="2"/>
<path d="M18.168 26H16.168V14.832H20.792C21.7733 14.832 22.5147 15.1307 23.016 15.728C23.528 16.3253 23.784 17.1573 23.784 18.224C23.784 19.0667 23.624 19.7653 23.304 20.32C22.984 20.864 22.5147 21.2373 21.896 21.44L23.928 26H21.768L19.928 21.6H18.168V26ZM20.584 19.936C20.9253 19.936 21.192 19.8453 21.384 19.664C21.5867 19.4827 21.688 19.1787 21.688 18.752V17.76C21.688 17.3333 21.5867 17.0293 21.384 16.848C21.192 16.6667 20.9253 16.576 20.584 16.576H18.168V19.936H20.584ZM25.7774 26V14.832H32.4814V16.576H27.7774V19.488H31.8894V21.184H27.7774V24.256H32.4814V26H25.7774ZM34.4805 26V14.832H39.1045C40.0858 14.832 40.8272 15.136 41.3285 15.744C41.8405 16.352 42.0965 17.1893 42.0965 18.256C42.0965 19.3227 41.8405 20.16 41.3285 20.768C40.8272 21.376 40.0858 21.68 39.1045 21.68H36.4805V26H34.4805ZM36.4805 19.936H38.8965C39.2378 19.936 39.5045 19.8453 39.6965 19.664C39.8992 19.472 40.0005 19.168 40.0005 18.752V17.76C40.0005 17.344 39.8992 17.0453 39.6965 16.864C39.5045 16.672 39.2378 16.576 38.8965 16.576H36.4805V19.936ZM43.8086 26V14.832H45.8086V24.256H49.7286V26H43.8086ZM57.7518 26L56.9678 23.088H53.3678L52.5838 26H50.6638L53.9278 14.832H56.4558L59.7198 26H57.7518ZM55.6238 18.416L55.2718 16.64H55.0477L54.6958 18.416L53.8478 21.472H56.4878L55.6238 18.416ZM62.5204 26V21.728L59.0964 14.832H61.2884L63.4484 19.632H63.6724L65.7844 14.832H67.9284L64.5204 21.728V26H62.5204Z" fill="#1E1E1E"/>
<path d="M109 12V18H103" stroke="black" stroke-width="2" stroke-linecap="round" stroke-linejoin="round"/>
<path d="M106.49 23C105.84 24.8399 104.61 26.4187 102.984 27.4985C101.359 28.5783 99.4265 29.1006 97.4784 28.9866C95.5304 28.8726 93.6722 28.1286 92.1838 26.8667C90.6954 25.6047 89.6574 23.8932 89.2264 21.9901C88.7953 20.0869 88.9945 18.0952 89.7939 16.3151C90.5932 14.5349 91.9495 13.0629 93.6584 12.1206C95.3672 11.1784 97.3359 10.8171 99.268 11.0911C101.2 11.3652 102.991 12.2597 104.37 13.64L109 18" stroke="black" stroke-width="2" stroke-linecap="round" stroke-linejoin="round"/>
</svg>
